<svg xmlns="http://www.w3.org/2000/svg" viewBox="0 0 1920 1080">
  <defs>
    <linearGradient id="bg" x1="0%" y1="0%" x2="100%" y2="100%">
      <stop offset="0%" stop-color="#16161e" />
      <stop offset="55%" stop-color="#1a1b26" />
      <stop offset="100%" stop-color="#11131a" />
    </linearGradient>
    <linearGradient id="glow" x1="0%" y1="0%" x2="100%" y2="0%">
      <stop offset="0%" stop-color="#7aa2f7" stop-opacity="0.20" />
      <stop offset="50%" stop-color="#7dcfff" stop-opacity="0.08" />
      <stop offset="100%" stop-color="#9ece6a" stop-opacity="0.12" />
    </linearGradient>
    <pattern id="grid" width="64" height="64" patternUnits="userSpaceOnUse">
      <path d="M 64 0 L 0 0 0 64" fill="none" stroke="#24283b" stroke-width="1" stroke-opacity="0.85" />
    </pattern>
  </defs>

  <rect width="1920" height="1080" fill="url(#bg)" />
  <rect width="1920" height="1080" fill="url(#grid)" opacity="0.24" />

  <circle cx="1520" cy="220" r="320" fill="#7aa2f7" opacity="0.05" />
  <circle cx="360" cy="880" r="280" fill="#7dcfff" opacity="0.05" />
  <circle cx="1040" cy="620" r="420" fill="#9ece6a" opacity="0.03" />

  <rect x="128" y="160" width="1664" height="760" rx="28" fill="#1f2335" opacity="0.18" />
  <rect x="168" y="208" width="1584" height="664" rx="24" fill="url(#glow)" opacity="0.26" />

  <path d="M 260 820 C 520 620, 760 620, 1020 820 S 1520 1020, 1760 760" fill="none" stroke="#7aa2f7" stroke-width="3" stroke-opacity="0.18" />
  <path d="M 220 300 C 520 220, 760 260, 980 420 S 1420 720, 1700 500" fill="none" stroke="#7dcfff" stroke-width="2" stroke-opacity="0.20" />

  <g fill="#c0caf5" font-family="JetBrains Mono, monospace" font-size="28" opacity="0.72">
    <text x="188" y="988">awesomewm :: tiling-first :: debian trixie</text>
  </g>
</svg>
